# xmcd
#
# Track frame offsets:
#	150
#	13290
#	27367
#	39992
#	53800
#	68532
#	83210
#	95350
#	108420
#	121262
#	131037
#	140937
#	152592
#	164900
#	178645
#	190975
#	202615
#	212602
#	224595
#	238995
#	256540
#	270720
#	281225
#	295477
#	308460
#
# Disc length: 4280 seconds
#
# Revision: 1
# Processed by: cddbd v1.5.2PL0 Copyright (c) Steve Scherf et al.
# Submitted via: audiograbber 1.83.01
#
DISCID=7710b619
DTITLE=Various Artist - The Last Blues Album
DYEAR=1900
DGENRE=Blues
TTITLE0=Muddy Waters - Mannish Boy
TTITLE1=Howlin' Wolf - Smokestack Lightnin'
TTITLE2=Albert King - California Blues
TTITLE3=Willie Dixon - Walkin' The Blues
TTITLE4=J.B. Lenoir - I've Been Down So Long
TTITLE5=Jimmy Witherspoon - Goin' Down Slow
TTITLE6=Otis Spann - Five Spot
TTITLE7=Otis Rush - All Your Love
TTITLE8=Memphis Slim - Tijuana
TTITLE9=Chuck Berry - Worried Life Blues
TTITLE10=Buddy Guy - The First Time I Met The Blues
TTITLE11=Sonny Boy Williamson - Bring It On Home
TTITLE12=Little Walter - Boom Boom (Out Goes The Light)
TTITLE13=Elmore James - Dust My Broom
TTITLE14=Bo Diddley - Pretty Thing
TTITLE15=Etta James - I Would Rather Go Blind
TTITLE16=John Lee Hooker - Dimples
TTITLE17=Jimmy Reed - Bright Lights, Big City
TTITLE18=John Brim - Rattlesnake
TTITLE19=Little Milton - The Things I Used To Do
TTITLE20=Willie Mabon - I Don't Know
TTITLE21=Jimmy McCracklin - Everybody Rock
TTITLE22=Lowell Fulson - Reconsider Baby
TTITLE23=Jimmy Rogers - She Loves Another Man
TTITLE24=Etta James and Harvey Fuqua - Spoonful
EXTD=
EXTT0=
EXTT1=
EXTT2=
EXTT3=
EXTT4=
EXTT5=
EXTT6=
EXTT7=
EXTT8=
EXTT9=
EXTT10=
EXTT11=
EXTT12=
EXTT13=
EXTT14=
EXTT15=
EXTT16=
EXTT17=
EXTT18=
EXTT19=
EXTT20=
EXTT21=
EXTT22=
EXTT23=
EXTT24=
PLAYORDER=
